<svg width="21" height="23" viewBox="0 0 21 23" fill="none" xmlns="http://www.w3.org/2000/svg">
<path d="M10.4401 2.55511e-06C11.3392 -0.000708239 12.2322 0.146885 13.0833 0.43684C12.2768 1.27063 11.7688 2.34781 11.6384 3.5005C11.5081 4.65318 11.7627 5.8166 12.3627 6.80945C12.9626 7.80229 13.8742 8.56877 14.9552 8.98942C16.0363 9.41008 17.2262 9.46128 18.3394 9.13504L18.6162 9.04394V12.2957C18.6163 12.4311 18.6401 12.5655 18.6863 12.6928L18.74 12.8178L20.7443 16.8276C20.8372 17.0133 20.8837 17.2188 20.8798 17.4264C20.8759 17.634 20.8217 17.8375 20.7219 18.0196C20.6222 18.2017 20.4797 18.3569 20.3069 18.472C20.134 18.587 19.9358 18.6584 19.7293 18.6801L19.595 18.6871H1.2852C1.07748 18.6871 0.872847 18.6368 0.688832 18.5405C0.504816 18.4441 0.346905 18.3046 0.22863 18.1338C0.110354 17.9631 0.0352419 17.7662 0.00972882 17.5601C-0.0157843 17.3539 0.00906283 17.1447 0.0821407 16.9502L0.135869 16.8276L2.14135 12.8178C2.20163 12.6965 2.24036 12.5657 2.25582 12.4312L2.26399 12.2969V8.1761C2.26399 6.00767 3.1254 3.92804 4.65872 2.39473C6.19203 0.861411 8.27165 2.55511e-06 10.4401 2.55511e-06ZM16.8642 1.16802C17.6386 1.16802 18.3813 1.47566 18.9289 2.02328C19.4766 2.57089 19.7842 3.31361 19.7842 4.08805C19.7842 4.86249 19.4766 5.60522 18.9289 6.15283C18.3813 6.70044 17.6386 7.00809 16.8642 7.00809C16.0897 7.00809 15.347 6.70044 14.7994 6.15283C14.2518 5.60522 13.9441 4.86249 13.9441 4.08805C13.9441 3.31361 14.2518 2.57089 14.7994 2.02328C15.347 1.47566 16.0897 1.16802 16.8642 1.16802ZM10.4401 22.1923C9.71516 22.1927 9.00796 21.9682 8.41594 21.5498C7.82393 21.1314 7.37625 20.5397 7.13461 19.8562H13.7456C13.5039 20.5397 13.0562 21.1314 12.4642 21.5498C11.8722 21.9682 11.165 22.1927 10.4401 22.1923Z" fill="#08465B"/>
</svg>
